<?xml version="1.0" standalone="no"?>
<!DOCTYPE svg PUBLIC "-//W3C//DTD SVG 20010904//EN"
 "http://www.w3.org/TR/2001/REC-SVG-20010904/DTD/svg10.dtd">
<svg version="1.0" xmlns="http://www.w3.org/2000/svg"
 width="924.000000pt" height="924.000000pt" viewBox="0 0 924.000000 924.000000"
 preserveAspectRatio="xMidYMid meet">
<metadata>
Created by potrace 1.14, written by Peter Selinger 2001-2017
</metadata>
<g transform="translate(0.000000,924.000000) scale(0.100000,-0.100000)"
fill="#000000" stroke="none">
<path d="M4040 8518 c1 -61 38 -167 110 -312 44 -88 80 -165 80 -172 0 -19
-213 -4 -390 28 -78 15 -69 13 -105 21 -16 4 -39 9 -50 11 -125 26 -444 152
-527 209 l-28 18 0 -51 c0 -75 43 -158 129 -250 39 -41 85 -93 103 -115 17
-22 51 -56 76 -75 48 -38 92 -99 92 -128 0 -18 -43 -36 -150 -63 -72 -18 -80
-19 -170 -27 -151 -15 -275 -5 -427 33 -68 17 -285 90 -314 106 -25 13 -25 -3
1 -60 49 -107 110 -155 310 -246 129 -58 230 -117 230 -134 0 -19 -313 -111
-460 -136 -52 -9 -105 -18 -118 -20 -149 -25 -727 -24 -776 2 -33 17 62 -62
115 -97 82 -53 169 -94 294 -137 55 -19 109 -38 120 -43 11 -5 34 -11 50 -15
17 -4 44 -13 60 -20 17 -7 47 -18 67 -25 21 -6 40 -15 43 -20 5 -8 -113 -61
-180 -82 -127 -39 -342 -83 -455 -93 -25 -2 -65 -7 -90 -10 -25 -2 -67 -7 -95
-10 -27 -3 -66 -8 -85 -10 -19 -3 -55 -7 -80 -10 -52 -6 -85 -12 -154 -27
l-48 -11 33 -29 c94 -83 189 -129 429 -208 96 -32 193 -66 215 -75 l40 -18
-99 -28 c-54 -15 -112 -30 -130 -33 -17 -3 -42 -8 -56 -11 -14 -3 -43 -8 -65
-11 -22 -3 -51 -7 -65 -10 -58 -10 -214 -18 -336 -17 -178 0 -340 12 -531 39
-18 2 -50 6 -70 9 -21 3 -49 7 -63 10 -35 6 -92 14 -148 20 -26 3 -55 8 -64
11 -26 8 -22 -5 19 -66 58 -86 209 -231 303 -292 117 -76 355 -188 398 -188
19 0 7 -13 -16 -17 -189 -34 -429 -37 -587 -7 -44 8 -134 39 -196 68 -179 81
-212 96 -220 96 -5 0 -9 -23 -9 -51 0 -45 5 -58 40 -103 74 -93 194 -207 275
-261 225 -149 433 -155 837 -24 21 7 40 10 43 7 3 -3 -8 -41 -25 -84 -38 -95
-99 -286 -117 -364 -18 -80 3 -145 55 -170 32 -17 229 -22 317 -9 165 24 207
9 207 -74 0 -25 -3 -55 -7 -66 -24 -75 -29 -239 -9 -303 l15 -48 48 0 c39 0
109 14 221 45 8 3 67 23 130 44 63 22 125 40 137 41 40 0 46 -69 14 -170 -29
-91 -27 -130 7 -166 73 -75 73 -96 2 -174 -62 -66 -145 -196 -181 -280 -31
-73 -31 -74 -12 -90 11 -9 61 -21 111 -29 97 -13 120 -24 126 -58 6 -29 -36
-157 -80 -246 -32 -65 -150 -264 -164 -277 -11 -11 -99 -179 -100 -191 0 -3
29 -21 65 -39 94 -48 178 -49 341 -5 66 19 137 36 157 40 l36 7 -6 -34 c-13
-86 -110 -326 -215 -530 l-64 -126 36 -21 c89 -50 223 -68 360 -48 73 10 114
18 130 23 8 3 45 8 81 11 l68 5 12 -43 c6 -24 13 -105 15 -180 3 -134 6 -169
19 -209 6 -20 7 -20 38 2 18 12 37 27 43 33 6 5 28 24 49 40 21 17 56 45 79
64 23 19 77 58 121 87 71 46 106 65 180 95 28 12 106 31 110 27 1 -2 5 -111 9
-243 6 -272 14 -359 51 -575 9 -52 64 -267 83 -325 l16 -49 23 84 c13 47 42
154 64 239 55 210 109 370 158 471 66 133 83 160 102 160 22 0 56 -32 92 -88
24 -37 72 -71 84 -59 5 5 9 28 18 102 4 32 9 68 11 80 3 11 7 37 10 59 7 47
73 292 107 401 50 158 199 590 207 598 12 14 75 -19 101 -52 61 -80 82 -100
110 -106 17 -4 33 -5 35 -2 3 2 0 26 -6 53 -29 125 -17 342 27 494 21 73 83
231 98 250 7 8 16 27 21 41 15 45 168 309 180 309 25 0 101 -101 159 -210 37
-70 87 -147 118 -183 l25 -28 4 41 c2 23 -2 62 -9 88 -30 112 -35 149 -30 226
6 80 11 110 22 146 3 10 8 27 10 37 2 10 22 78 45 152 23 74 44 144 46 155 2
12 7 37 10 56 13 70 53 118 107 127 46 7 73 -9 87 -54 47 -150 128 -295 180
-323 16 -9 17 -6 8 38 -52 265 -55 416 -13 622 29 143 143 336 252 427 167
140 369 215 557 208 166 -6 303 -68 451 -205 94 -87 191 -133 306 -146 86 -9
82 -9 97 -17 17 -11 15 -53 -7 -116 -20 -56 -19 -74 6 -106 15 -20 15 -20 26
-1 7 11 48 64 92 119 148 184 167 212 196 274 16 34 36 101 44 149 16 89 49
168 135 323 51 91 88 201 86 252 0 21 2 39 6 39 3 0 4 9 1 19 -4 16 -27 -3
-122 -100 -110 -113 -119 -120 -152 -117 -31 3 -37 8 -63 65 -30 65 -60 89
-95 78 -11 -3 -44 -26 -73 -51 -28 -24 -57 -44 -64 -44 -6 0 -15 16 -18 35
-10 52 -45 124 -66 135 -35 19 -71 10 -185 -45 -63 -30 -119 -55 -124 -55 -10
0 -29 51 -35 96 -22 161 -66 209 -166 177 -100 -31 -102 -31 -164 31 -31 31
-66 56 -76 56 -18 0 -95 -59 -113 -87 -4 -6 -25 -14 -46 -18 -94 -16 -229 108
-256 235 -12 55 -7 125 13 178 26 68 67 122 207 272 71 77 72 77 84 33 6 -21
13 -81 16 -135 5 -104 14 -137 44 -170 18 -19 23 -20 53 -7 18 7 69 51 114 96
44 46 87 83 95 83 8 0 31 -27 52 -59 63 -98 114 -149 153 -157 39 -7 95 13
135 49 13 12 43 37 67 56 l42 33 65 -61 c91 -85 134 -104 202 -88 26 7 105 51
148 83 l29 23 47 -72 c101 -157 132 -158 321 -15 l77 58 21 -28 c21 -25 22
-34 16 -128 -9 -128 -3 -154 31 -148 91 17 151 76 182 181 33 106 117 237 276
428 36 44 71 87 78 95 72 88 266 449 306 568 25 73 31 262 9 263 -7 0 -35 2
-63 4 -27 2 -93 6 -145 10 -52 3 -108 8 -125 10 -16 2 -52 6 -80 9 -94 10
-150 16 -180 21 -28 4 -57 8 -145 21 -19 2 -75 12 -125 20 -49 9 -103 18 -120
21 -36 5 -53 8 -125 23 -30 6 -68 13 -85 16 -67 12 -223 46 -275 61 -61 18
-135 62 -195 118 -62 58 -227 162 -285 180 -3 1 -23 9 -45 19 -22 10 -47 19
-55 22 -8 2 -49 13 -90 24 -130 36 -271 61 -420 75 -123 11 -168 15 -225 20
-70 6 -150 15 -185 21 -14 3 -43 7 -65 10 -58 8 -137 29 -245 64 -93 31 -115
33 -200 16 -58 -12 -325 -129 -440 -193 -130 -72 -266 -107 -415 -107 -146 -1
-245 20 -370 79 -57 27 -214 121 -225 134 -3 4 -21 19 -40 35 -19 15 -55 47
-80 70 -42 39 -105 76 -129 76 -6 0 -11 -10 -11 -22z m3095 -799 c56 -14 114
-64 143 -122 31 -62 34 -98 11 -136 -23 -37 -50 -40 -131 -11 -31 11 -109 29
-175 40 -65 12 -142 28 -172 37 -29 8 -59 16 -65 17 -15 3 -117 55 -134 69
-10 8 2 16 50 34 35 13 81 28 103 33 22 6 49 13 60 16 113 33 236 42 310 23z"/>
</g>
</svg>
